<?xml version="1.0" encoding="UTF-8"?>
<!-- Nachgezeichnet aus dem bisherigen Foto pictures/raspberrypi-2-model-b.jpg des Downloaders,
     weil es fuer dieses Geraet in freifunk/device-pictures keine Zeichnung
     gibt und der Downloader nur EINE Dateiendung global kann.
     Werkzeug: vtracer, Vorlage auf 512 px vergroessert, Modus polygon,
     color_precision 7, filter_speckle 4.
     Lizenz wie die Vorlage: CC-BY-NC-SA 4.0. -->
<!-- Generator: visioncortex VTracer 0.6.5 -->
<svg version="1.1" xmlns="http://www.w3.org/2000/svg" width="512" height="512">
<path d="M0,0 L512,0 L512,512 L0,512 Z " fill="#FEFEFE" transform="translate(0,0)"/>
<path d="M0,0 L417,0 L417,2 L421,3 L425,6 L425,15 L346,15 L347,81 L426,82 L426,111 L346,111 L346,179 L426,179 L426,202 L327,202 L327,283 L421,283 L421,286 L416,287 L416,289 L283,290 L278,292 L277,302 L250,302 L249,290 L246,290 L246,288 L189,288 L188,238 L113,237 L113,288 L63,288 L62,265 L24,264 L20,258 L15,255 L4,255 L-2,260 L-4,263 L-4,274 L0,280 L5,282 L5,284 L14,284 L14,282 L21,280 L23,275 L26,274 L26,288 L5,288 L-5,286 L-9,282 L-10,278 L-10,10 L-8,9 L-5,4 Z " fill="#01753A" transform="translate(43,104)"/>
<path d="M0,0 L2,1 L2,6 L10,6 L10,75 L3,76 L2,102 L10,102 L10,172 L2,172 L3,194 L12,194 L12,277 L-2,278 L-5,280 L-9,279 L-4,278 L-4,275 L-98,275 L-98,194 L1,194 L1,171 L-79,171 L-79,103 L1,103 L1,74 L-78,74 L-79,73 L-79,7 L0,7 Z " fill="#CBCBCB" transform="translate(468,112)"/>
<path d="M0,0 L12,0 L13,1 L13,25 L21,26 L21,91 L13,91 L13,114 L31,114 L31,57 L32,52 L69,52 L69,49 L74,49 L75,46 L85,46 L88,49 L89,66 L79,67 L92,68 L94,69 L94,80 L99,80 L99,82 L103,82 L104,79 L107,79 L107,81 L105,81 L105,83 L107,83 L107,86 L111,87 L110,88 L111,107 L102,111 L99,113 L86,113 L86,110 L81,110 L79,114 L201,113 L115,112 L115,110 L209,110 L209,113 L204,114 L204,116 L71,117 L66,119 L65,129 L38,129 L37,117 L34,117 L34,115 L-1,115 L-1,1 Z " fill="#3F4040" transform="translate(255,277)"/>
<path d="M0,0 L75,0 L76,1 L76,51 L133,51 L133,53 L136,53 L137,55 L137,65 L164,65 L164,55 L166,53 L169,54 L167,55 L166,68 L135,68 L134,67 L134,56 L131,56 L130,54 L76,53 L76,63 L-2,63 L-2,54 L-49,54 L-49,57 L-88,57 L-88,53 L-112,53 L-112,51 L-116,50 L-114,49 L-108,50 L-87,51 L-87,37 L-91,41 L-95,45 L-99,45 L-99,47 L-108,47 L-108,45 L-113,44 L-117,39 L-118,37 L-118,26 L-112,19 L-109,17 L-98,17 L-92,21 L-89,26 L-51,27 L-50,28 L-50,51 L0,51 Z " fill="#CBCBCB" transform="translate(156,341)"/>
<path d="M0,0 L76,0 L76,76 L0,76 Z " fill="#3F3F3F" transform="translate(132,192)"/>
<path d="M0,0 L7,0 L7,69 L-1,70 L-1,67 L-80,67 L-80,3 L4,3 L4,68 L6,68 L6,1 L0,1 Z " fill="#CBCBCB" transform="translate(471,118)"/>
<path d="M0,0 L5,0 L5,2 L7,2 L7,4 L12,0 L16,0 L16,2 L19,2 L19,5 L24,1 L34,1 L39,0 L46,1 L53,2 L53,4 L58,1 L64,1 L69,3 L69,0 L74,0 L75,2 L80,1 L81,0 L87,0 L92,1 L93,0 L98,0 L103,1 L104,0 L109,0 L110,1 L115,1 L116,0 L121,0 L121,2 L126,2 L127,0 L133,0 L133,3 L138,1 L139,0 L144,0 L149,1 L150,0 L156,0 L159,3 L159,23 L156,26 L151,25 L144,23 L143,26 L138,26 L133,24 L133,26 L127,26 L123,25 L122,26 L114,26 L110,26 L104,26 L99,24 L99,26 L93,26 L89,25 L88,26 L81,26 L79,24 L76,24 L75,26 L69,26 L69,23 L64,23 L63,26 L52,25 L51,26 L46,26 L45,23 L40,25 L39,26 L34,26 L29,24 L29,26 L23,26 L19,25 L18,26 L11,26 L7,24 L5,24 L5,26 L-1,26 L-1,23 L-6,25 L-11,26 L-17,24 L-17,26 L-23,26 L-24,25 L-29,25 L-34,26 L-39,25 L-40,26 L-46,26 L-51,25 L-52,26 L-58,26 L-58,23 L-64,25 L-65,26 L-71,26 L-73,23 L-73,4 L-70,1 L-64,1 L-59,4 L-58,1 L-53,1 L-51,3 L-47,2 L-46,1 L-41,1 L-39,4 L-39,8 L-37,8 L-37,4 L-35,4 L-34,1 L-30,2 L-25,4 L-25,2 L-18,2 L-13,3 L-11,1 L-1,1 Z " fill="#3A453E" transform="translate(155,108)"/>
<path d="M0,0 L417,0 L417,2 L313,3 L319,8 L320,12 L320,21 L319,25 L320,26 L322,10 L320,10 L320,7 L316,3 L335,3 L335,6 L339,7 L340,8 L340,16 L338,20 L338,40 L335,42 L325,42 L324,41 L324,32 L319,32 L319,30 L313,31 L313,33 L299,33 L299,38 L296,38 L293,34 L293,32 L295,30 L292,27 L291,23 L291,10 L294,6 L295,2 L14,3 L20,7 L23,11 L23,24 L19,31 L16,31 L16,33 L2,33 L1,32 L-4,32 L-4,35 L0,35 L0,44 L-1,46 L-7,46 L-8,54 L-1,54 L-1,65 L-7,65 L-8,64 L-9,278 L-10,278 L-10,10 L-8,9 L-5,4 Z " fill="#628C71" transform="translate(43,104)"/>
<path d="M0,0 L7,0 L7,2 L9,2 L10,8 L11,0 L21,0 L21,9 L13,9 L13,12 L15,12 L15,130 L1,130 L0,108 L-5,105 L-6,154 L-4,155 L-3,160 L0,160 L1,156 L7,158 L5,165 L8,162 L20,162 L23,164 L23,178 L21,180 L5,181 L5,184 L0,188 L-2,191 L-2,202 L2,208 L7,210 L7,212 L16,212 L16,210 L23,208 L25,203 L28,202 L28,216 L7,216 L-3,214 L-7,210 L-7,40 L0,38 L1,13 L5,12 L3,10 L1,10 L1,12 L-1,12 L-1,1 Z " fill="#027538" transform="translate(41,176)"/>
<path d="M0,0 L12,0 L13,1 L13,25 L21,26 L21,91 L13,91 L13,114 L31,114 L31,57 L32,53 L71,53 L71,114 L70,114 L70,54 L34,55 L33,115 L-1,115 L-1,1 Z " fill="#3C4A42" transform="translate(255,277)"/>
<path d="M0,0 L10,0 L13,3 L14,20 L4,21 L17,22 L19,23 L19,34 L24,34 L24,36 L28,36 L29,33 L32,33 L32,35 L30,35 L30,37 L32,37 L32,40 L36,41 L35,42 L36,61 L27,65 L24,67 L11,67 L11,64 L6,64 L4,68 L126,67 L40,66 L40,64 L134,64 L134,67 L129,68 L129,70 L-4,70 L-4,7 L-43,7 L-43,6 L-6,6 L-6,3 L-1,3 Z " fill="#147544" transform="translate(330,323)"/>
<path d="M0,0 L108,0 L113,4 L113,13 L34,13 L35,79 L114,80 L114,109 L34,109 L34,177 L114,177 L114,200 L15,200 L15,281 L14,281 L14,199 L113,199 L112,179 L33,178 L32,176 L32,109 L33,107 L112,107 L112,82 L33,82 L32,80 L32,12 L28,12 L26,5 L23,4 L23,1 L5,2 L9,5 L8,8 L10,8 L10,20 L8,24 L6,23 L7,19 L7,10 L5,5 Z " fill="#05763C" transform="translate(355,106)"/>
<path d="M0,0 L75,0 L76,1 L76,51 L133,51 L133,53 L136,53 L137,55 L137,65 L164,65 L164,55 L166,53 L169,54 L167,55 L166,68 L135,68 L134,67 L134,56 L131,56 L130,54 L76,53 L76,61 L73,61 L73,41 L72,41 L72,7 L70,7 L70,9 L68,9 L68,7 L3,7 L2,61 L0,61 L0,53 L-51,53 L-52,56 L-52,29 L-86,29 L-86,52 L-112,52 L-116,50 L-114,49 L-108,50 L-87,51 L-87,37 L-91,41 L-95,45 L-99,45 L-99,47 L-108,47 L-108,45 L-113,44 L-117,39 L-118,37 L-118,26 L-112,19 L-109,17 L-98,17 L-92,21 L-89,26 L-51,27 L-50,28 L-50,51 L0,51 Z " fill="#CDCBCC" transform="translate(156,341)"/>
<path d="M0,0 L8,1 L11,6 L11,18 L10,20 L14,20 L14,22 L16,22 L17,6 L38,6 L38,17 L37,18 L40,19 L40,32 L34,32 L31,30 L30,36 L16,36 L15,41 L-3,41 L-3,43 L-21,43 L-21,41 L-38,41 L-38,27 L-28,27 L-23,26 L-26,25 L-26,22 L-23,22 L-23,24 L-8,24 L-9,16 L-11,16 L-11,6 L-8,1 Z " fill="#08723C" transform="translate(84,288)"/>
<path d="M0,0 L42,0 L42,44 L-2,44 L-2,3 Z " fill="#40403F" transform="translate(320,196)"/>
<path d="M0,0 L7,0 L7,92 L5,92 L5,102 L-5,101 L-5,79 L-13,77 L-13,17 L-4,14 L-2,1 Z " fill="#3F403F" transform="translate(49,202)"/>
<path d="M0,0 L7,0 L14,3 L17,6 L18,10 L18,19 L17,23 L18,24 L20,8 L18,8 L18,5 L14,1 L33,1 L33,4 L37,5 L38,6 L38,14 L36,18 L36,38 L33,40 L23,40 L22,39 L22,30 L17,30 L17,28 L11,29 L11,31 L-3,31 L-3,36 L-6,36 L-9,32 L-9,30 L-7,28 L-10,25 L-11,21 L-11,8 L-4,2 L0,2 Z " fill="#0A7339" transform="translate(345,106)"/>
<path d="M0,0 L76,0 L76,76 L0,76 Z M3,3 L3,73 L65,73 L66,72 L67,8 L65,3 Z " fill="#404240" transform="translate(132,192)"/>
<path d="M0,0 L2,1 L3,6 L9,7 L9,74 L7,74 L7,9 L-77,9 L-77,73 L2,73 L2,105 L-77,105 L-77,169 L2,169 L2,195 L-97,195 L-97,274 L-2,274 L-3,277 L-4,275 L-98,275 L-98,194 L1,194 L1,171 L-79,171 L-79,103 L1,103 L1,74 L-78,74 L-79,73 L-79,7 L0,7 Z " fill="#9CA8A1" transform="translate(468,112)"/>
<path d="M0,0 L282,0 L282,1 L260,1 L259,26 L256,26 L257,25 L257,5 L255,3 L249,3 L244,4 L243,3 L238,3 L236,5 L232,5 L232,2 L226,2 L225,5 L220,4 L220,2 L214,4 L209,4 L208,3 L203,3 L198,4 L197,3 L192,3 L187,4 L186,3 L180,3 L178,5 L173,4 L173,2 L168,2 L168,5 L157,4 L155,6 L152,6 L152,4 L140,4 L134,3 L133,4 L123,4 L120,7 L118,7 L118,4 L115,4 L115,2 L110,4 L106,6 L106,4 L104,4 L104,2 L98,4 L88,4 L86,6 L81,5 L74,4 L74,6 L69,5 L65,4 L64,6 L62,6 L62,10 L60,10 L58,3 L52,5 L48,6 L46,4 L41,4 L40,6 L36,5 L35,4 L29,4 L27,6 L26,25 L25,25 L25,12 L21,13 L20,10 L16,10 L15,6 L13,6 L12,10 L12,22 L8,25 L9,22 L9,9 L5,4 L0,1 Z " fill="#086F3B" transform="translate(56,106)"/>
<path d="M0,0 L19,0 L19,11 L24,11 L24,13 L28,13 L29,10 L32,10 L32,12 L30,12 L30,14 L32,14 L32,17 L36,18 L35,19 L36,38 L27,42 L14,42 L8,38 L5,32 L5,23 L13,13 L1,13 L-1,11 L-1,1 Z " fill="#368959" transform="translate(330,346)"/>
<path d="M0,0 L4,1 L8,4 L8,13 L-71,13 L-70,79 L9,80 L9,109 L-71,109 L-71,177 L9,177 L9,200 L-90,200 L-90,281 L-91,281 L-91,199 L8,199 L7,179 L-72,178 L-73,176 L-73,109 L-72,107 L7,107 L7,82 L-72,82 L-72,12 L7,12 L5,6 L4,4 L0,3 Z " fill="#377C5A" transform="translate(460,106)"/>
<path d="M0,0 L11,0 L17,4 L20,9 L58,10 L59,11 L59,34 L109,34 L109,35 L59,36 L57,39 L57,12 L23,12 L23,35 L-3,35 L-7,33 L-5,32 L1,33 L22,34 L22,20 L18,24 L14,28 L10,28 L10,30 L1,30 L1,28 L-4,27 L-8,22 L-9,20 L-9,9 L-3,2 Z " fill="#BB9A48" transform="translate(47,358)"/>
<path d="M0,0 L7,0 L7,2 L9,2 L10,8 L11,0 L21,0 L21,9 L13,9 L13,12 L15,12 L15,26 L6,27 L6,35 L4,40 L-4,43 L-5,103 L1,104 L3,105 L3,127 L11,127 L13,128 L13,118 L15,118 L15,130 L1,130 L0,108 L-5,105 L-6,207 L-4,207 L-2,212 L-1,214 L-5,212 L-7,210 L-7,40 L0,38 L1,13 L5,12 L3,10 L1,10 L1,12 L-1,12 L-1,1 Z " fill="#414241" transform="translate(41,176)"/>
<path d="M0,0 L7,0 L7,92 L-2,92 L-2,1 Z " fill="#37413B" transform="translate(49,202)"/>
<path d="M0,0 L8,0 L8,11 L7,12 L6,100 L-2,101 L-1,14 L-3,14 L-2,9 L0,9 Z " fill="#2E2F2E" transform="translate(257,280)"/>
<path d="M0,0 L8,0 L8,2 L14,3 L19,9 L19,22 L14,25 L13,27 L11,27 L11,30 L-1,30 L-7,26 L-9,22 L-9,19 L-11,19 L-11,12 L-8,5 L-4,2 L0,2 Z " fill="#BA9949" transform="translate(47,106)"/>
<path d="M0,0 L21,0 L21,11 L20,12 L23,13 L23,26 L17,26 L14,24 L13,30 L0,30 Z " fill="#2E8759" transform="translate(101,294)"/>
<path d="M0,0 L76,0 L76,76 L0,76 Z M2,2 L2,73 L3,74 L74,74 L74,3 L73,2 Z " fill="#38604B" transform="translate(132,192)"/>
<path d="M0,0 L2,0 L3,272 L0,269 Z " fill="#CFD4CF" transform="translate(31,114)"/>
<path d="M0,0 L75,0 L76,1 L76,51 L133,51 L133,53 L136,53 L137,55 L137,65 L164,65 L164,55 L166,53 L169,54 L167,55 L166,68 L135,68 L134,67 L134,56 L131,56 L130,54 L76,53 L76,61 L73,61 L74,1 L1,1 L1,51 L0,51 Z " fill="#96A79C" transform="translate(156,341)"/>
<path d="M0,0 L19,0 L19,12 L18,14 L34,13 L36,12 L36,1 L53,1 L53,14 L35,14 L35,16 L17,16 L17,14 L0,14 Z " fill="#37835D" transform="translate(46,315)"/>
<path d="M0,0 L1,2 L10,2 L10,85 L-4,86 L-7,88 L-11,87 L-5,84 L-4,82 L-99,82 L-99,3 L0,3 Z M-98,4 L-98,81 L8,82 L8,4 Z " fill="#BCBDBB" transform="translate(470,304)"/>
<path d="M0,0 L94,0 L94,3 L89,4 L89,6 L-44,6 L-44,4 L86,3 L0,2 Z " fill="#478867" transform="translate(370,387)"/>
<path d="M0,0 L2,1 L3,6 L-2,4 L-2,2 L-419,3 L-425,8 L-427,12 L-428,8 L-422,1 Z " fill="#CBD5CD" transform="translate(462,102)"/>
<path d="M0,0 L8,1 L9,7 L10,12 L10,19 L7,20 L6,23 L10,24 L4,26 L-1,25 L-2,22 L-4,22 L-4,24 L-8,24 L-7,15 L-10,15 L-11,19 L-13,17 L-13,9 L-11,5 L-6,1 Z " fill="#BF9D52" transform="translate(348,108)"/>
<path d="M0,0 L1,0 L2,30 L3,26 L8,26 L8,35 L2,34 L2,44 L9,44 L9,55 L3,55 L2,54 L1,268 L0,268 Z " fill="#69957D" transform="translate(33,114)"/>
<path d="M0,0 L4,0 L4,4 L2,4 L2,86 L6,87 L6,91 L-2,91 L-2,2 Z " fill="#161717" transform="translate(50,203)"/>
<path d="M0,0 L5,0 L3,3 L2,63 L8,64 L10,65 L10,87 L18,87 L20,88 L20,78 L22,78 L22,90 L8,90 L7,68 L2,65 L1,167 L3,167 L5,172 L6,174 L2,172 L0,170 Z " fill="#385949" transform="translate(34,216)"/>
<path d="M0,0 L18,0 L18,20 L0,20 Z " fill="#3F4140" transform="translate(98,340)"/>
<path d="M0,0 L282,0 L282,1 L115,2 L110,4 L106,6 L106,4 L104,4 L104,2 L98,4 L80,2 L7,2 L6,5 L0,1 Z " fill="#147645" transform="translate(56,106)"/>
<path d="M0,0 L42,0 L42,44 L-2,44 L-2,3 Z M0,2 L0,42 L40,42 L40,2 Z " fill="#38604B" transform="translate(320,196)"/>
<path d="M0,0 L6,0 L6,2 L9,5 L-285,5 L-285,4 L-1,4 Z " fill="#F6F7F5" transform="translate(345,98)"/>
<path d="M0,0 L12,0 L13,1 L13,25 L21,26 L21,91 L17,90 L19,90 L18,28 L11,28 L8,23 L8,15 L9,14 L10,3 L2,3 L2,12 L-1,13 L-1,1 Z " fill="#3F4F46" transform="translate(255,277)"/>
<path d="M0,0 L14,0 L16,5 L16,15 L14,18 L0,18 L-2,16 L-2,2 Z " fill="#435F4F" transform="translate(77,290)"/>
<path d="M0,0 L12,0 L15,2 L15,16 L13,18 L-1,18 L-3,14 L-3,3 Z " fill="#656465" transform="translate(49,338)"/>
<path d="M0,0 L11,0 L13,3 L13,9 L12,10 L-1,10 L-1,17 L-16,17 L-18,15 L-18,8 L-4,8 L-3,3 Z " fill="#196E44" transform="translate(298,303)"/>
<path d="M0,0 L6,1 L6,3 L12,4 L12,6 L17,5 L18,10 L17,15 L14,15 L15,8 L13,8 L13,13 L11,13 L11,16 L8,18 L0,18 L0,16 L-3,16 L-3,14 L-6,14 L-6,8 L-8,6 L-3,6 L-3,3 L-7,4 L-7,1 L0,2 Z " fill="#C5A666" transform="translate(346,364)"/>
<path d="M0,0 L4,1 L8,4 L8,13 L-71,13 L-70,79 L9,80 L9,109 L8,109 L8,81 L-71,81 L-72,80 L-72,12 L7,12 L5,6 L4,4 L0,3 Z " fill="#59876F" transform="translate(460,106)"/>
<path d="M0,0 L5,1 L5,90 L0,90 L1,86 L1,4 Z " fill="#141414" transform="translate(256,290)"/>
<path d="M0,0 L1,0 L1,20 L19,20 L19,22 L6,23 L5,27 L10,28 L10,51 L58,51 L58,2 L59,2 L59,52 L9,52 L8,29 L-30,28 L-32,23 L-27,25 L-27,27 L-1,27 Z " fill="#1C794B" transform="translate(97,340)"/>
<path d="M0,0 L16,0 L24,1 L24,2 L18,2 L18,13 L24,13 L24,14 L16,15 L0,15 Z " fill="#3F4240" transform="translate(64,314)"/>
<path d="M0,0 L6,0 L7,1 L8,21 L8,34 L0,34 L-1,17 L-1,1 Z " fill="#2A6647" transform="translate(323,142)"/>
<path d="M0,0 L7,0 L14,3 L17,6 L18,10 L18,19 L15,26 L9,30 L-2,30 L-10,23 L-11,21 L-11,8 L-4,2 L0,2 Z M3,2 L-5,4 L-8,7 L-10,11 L-10,19 L-8,21 L-7,17 L-4,17 L-5,26 L-1,26 L-1,24 L1,24 L3,28 L12,27 L13,25 L9,25 L10,22 L13,21 L13,14 L12,9 L11,3 Z " fill="#BA9949" transform="translate(345,106)"/>
<path d="M0,0 L2,2 L5,2 L5,5 L3,6 L2,13 L5,13 L5,15 L8,15 L8,17 L16,16 L19,15 L19,12 L21,12 L21,7 L23,7 L22,14 L25,14 L25,9 L26,9 L26,15 L22,21 L19,23 L6,23 L0,19 L-3,13 L-3,4 Z " fill="#B1974A" transform="translate(338,365)"/>
<path d="M0,0 L2,0 L1,4 L1,14 L2,15 L14,16 L8,23 L5,27 L5,41 L-2,45 L-2,3 Z " fill="#03753B" transform="translate(329,343)"/>
<path d="M0,0 L17,0 L17,13 L-1,13 L-1,15 L-19,15 L-19,13 L-2,12 L0,11 Z " fill="#1A7949" transform="translate(82,316)"/>
<path d="M0,0 L4,0 L4,12 L2,20 L-4,20 L-4,13 L0,13 L0,11 L-4,10 L-6,9 L-6,16 L-9,17 L-10,20 L-15,20 L-16,14 L-14,7 L-9,7 L-8,4 L-6,5 L-6,7 L-4,7 L-4,2 Z " fill="#424041" transform="translate(146,111)"/>
<path d="M0,0 L37,0 L38,1 L38,24 L88,24 L88,25 L38,26 L36,29 L36,2 L2,2 L2,25 L-24,25 L-28,23 L-26,22 L-20,23 L1,24 L1,10 L-2,11 L-2,9 L0,9 Z " fill="#6B8F7A" transform="translate(68,368)"/>
<path d="M0,0 L2,1 L2,12 L6,18 L11,20 L11,22 L20,22 L20,20 L27,18 L29,13 L32,12 L32,26 L11,26 L3,24 L0,21 L0,17 L-2,17 L-1,14 Z " fill="#09763A" transform="translate(37,366)"/>
<path d="M0,0 L7,0 L7,2 L9,2 L10,8 L11,0 L21,0 L21,9 L13,9 L13,12 L15,12 L15,14 L1,14 L5,12 L3,10 L1,10 L1,12 L-1,12 L-1,1 Z " fill="#1A793B" transform="translate(41,176)"/>
<path d="M0,0 L8,0 L8,70 L0,70 L0,68 L5,68 L5,2 L0,2 Z " fill="#B8B9B9" transform="translate(470,214)"/>
<path d="M0,0 L18,0 L18,12 L0,12 Z " fill="#85A58C" transform="translate(104,280)"/>
<path d="M0,0 L11,0 L11,18 L-1,18 L-1,1 Z " fill="#AAAC9D" transform="translate(331,324)"/>
<path d="M0,0 L12,0 L12,18 L1,18 L0,17 Z " fill="#84A18A" transform="translate(372,248)"/>
<path d="M0,0 L4,1 L-3,6 L-5,12 L-6,19 L-4,19 L0,27 L4,29 L16,30 L16,27 L18,27 L19,24 L22,23 L21,27 L20,29 L17,29 L17,31 L3,31 L2,30 L-3,30 L-3,33 L1,33 L1,42 L0,44 L-6,44 L-5,42 L-1,43 L-1,34 L-6,34 L-6,40 L-8,38 L-8,8 L-5,3 Z " fill="#1F804E" transform="translate(42,106)"/>
<path d="M0,0 L34,0 L35,24 L36,28 L1,28 L0,25 L33,25 L33,1 L1,1 L1,24 L-26,24 L-26,23 L0,23 Z " fill="#B4B8B6" transform="translate(70,370)"/>
<path d="M0,0 L17,0 L17,12 L1,12 L-1,10 L-1,1 Z " fill="#B2AD9F" transform="translate(363,272)"/>
<path d="M0,0 L1,0 L1,18 L9,18 L10,1 L15,2 L15,7 L21,5 L22,2 L22,12 L16,13 L16,10 L12,10 L12,12 L15,13 L16,21 L20,21 L20,18 L26,18 L26,21 L15,22 L15,19 L9,21 L8,22 L2,22 L0,19 Z " fill="#3D3F3E" transform="translate(82,112)"/>
<path d="M0,0 L73,0 L73,1 L1,1 L1,60 L-1,60 L-1,52 L-51,52 L-51,51 L-1,50 Z " fill="#B1B7B1" transform="translate(157,342)"/>
<path d="M0,0 L4,1 L5,5 L7,5 L9,10 L16,10 L15,20 L5,20 L4,23 L-1,23 L-2,16 L-1,15 L5,15 L6,18 L9,19 L9,16 L13,15 L13,12 L7,13 L3,12 L3,10 L-1,10 L-2,1 Z " fill="#424142" transform="translate(191,110)"/>
<path d="M0,0 L1,0 L1,167 L3,167 L5,172 L6,174 L2,172 L0,170 Z " fill="#39795A" transform="translate(34,216)"/>
<path d="M0,0 L6,1 L6,10 L3,10 L3,14 L6,13 L7,22 L0,23 L-3,18 L-3,2 Z " fill="#414040" transform="translate(167,110)"/>
<path d="M0,0 L2,0 L3,82 L0,81 L0,72 L-2,72 L-2,64 L0,64 Z " fill="#147343" transform="translate(367,306)"/>
<path d="M0,0 L3,1 L4,6 L2,6 L2,8 L6,8 L6,18 L4,18 L4,23 L-1,23 L-4,21 L-4,6 L-1,1 Z " fill="#3E413F" transform="translate(180,110)"/>
<path d="M0,0 L12,0 L12,14 L11,15 L1,15 L0,14 Z " fill="#8F9B88" transform="translate(102,308)"/>
<path d="M0,0 L4,0 L4,3 L7,3 L7,21 L0,22 L-2,21 L-2,3 Z " fill="#404140" transform="translate(283,109)"/>
<path d="M0,0 L57,0 L57,2 L60,2 L61,4 L61,14 L88,14 L88,4 L90,2 L93,3 L91,4 L90,16 L60,16 L59,15 L59,4 L56,4 L56,1 L0,1 Z " fill="#77807B" transform="translate(232,392)"/>
<path d="M0,0 L7,0 L7,69 L-1,70 L-1,67 L-80,67 L-80,66 L4,66 L4,68 L6,68 L6,1 L0,1 Z " fill="#BEBEBD" transform="translate(471,118)"/>
<path d="M0,0 L7,0 L11,3 L11,11 L8,14 L0,14 L-3,12 L-3,4 Z " fill="#F0F1F0" transform="translate(345,114)"/>
<path d="M0,0 L16,0 L16,10 L0,10 Z " fill="#A7B5A2" transform="translate(104,328)"/>
<path d="M0,0 L16,0 L16,10 L0,10 Z " fill="#A2AC98" transform="translate(104,295)"/>
<path d="M0,0 L7,0 L10,3 L10,9 L5,14 L0,14 L-4,9 L-4,4 Z " fill="#E6DAC6" transform="translate(50,366)"/>
<path d="M0,0 L76,1 L75,4 L0,3 Z " fill="#22744B" transform="translate(156,338)"/>
<path d="M0,0 L132,0 L132,1 L1,1 L1,4 L-3,4 L-3,15 L-4,15 L-4,3 Z " fill="#BEC1BF" transform="translate(326,393)"/>
<path d="M0,0 L8,0 L11,3 L11,10 L8,13 L0,13 L-1,10 L-3,10 L-3,4 Z " fill="#F2F1F4" transform="translate(47,114)"/>
<path d="M0,0 L5,1 L7,5 L4,15 L5,16 L5,22 L3,24 L0,24 L-1,17 L-3,17 L-3,7 L-2,3 L0,3 Z " fill="#424141" transform="translate(225,109)"/>
<path d="M0,0 L105,0 L105,1 L5,2 L9,5 L8,8 L10,8 L10,20 L8,24 L6,23 L7,19 L7,10 L5,5 Z " fill="#147745" transform="translate(355,106)"/>
<path d="M0,0 L17,0 L17,8 L16,9 L1,9 L0,8 Z " fill="#AAAE9F" transform="translate(330,348)"/>
<path d="M0,0 L12,0 L15,2 L15,16 L13,18 L-1,18 L-3,14 L-3,3 Z M0,3 L0,15 L1,16 L12,16 L12,3 Z " fill="#505E55" transform="translate(49,338)"/>
<path d="M0,0 L8,1 L8,66 L4,65 L6,65 L5,3 L3,3 L3,1 Z " fill="#30644A" transform="translate(268,302)"/>
<path d="M0,0 L36,0 L37,63 L32,65 L31,75 L4,75 L4,74 L30,74 L30,63 L35,62 L35,1 L0,1 Z " fill="#484F4A" transform="translate(289,331)"/>
<path d="M0,0 L9,0 L9,16 L0,16 Z " fill="#A8ADA1" transform="translate(370,128)"/>
<path d="M0,0 L15,0 L21,6 L21,12 L19,10 L15,10 L15,8 L9,7 L9,5 L3,4 L3,6 L-4,5 Z " fill="#BA9A48" transform="translate(343,360)"/>
<path d="M0,0 L1,4 L8,4 L9,5 L9,16 L2,18 L-16,18 L-16,17 L-11,17 L-12,2 L0,2 Z M-10,6 L-10,16 L6,16 L6,6 Z " fill="#268255" transform="translate(114,322)"/>
<path d="M0,0 L11,0 L13,1 L13,19 L10,21 L0,21 L-1,20 L-1,2 Z M2,3 L2,19 L11,19 L11,3 Z " fill="#348B5D" transform="translate(368,125)"/>
<path d="M0,0 L2,1 L-5,9 L-5,18 L-1,25 L3,27 L14,28 L13,30 L0,30 L0,27 L-5,27 L-7,31 L-14,31 L-13,27 L-9,24 L-7,24 L-8,19 L-8,10 L-1,1 Z " fill="#187A3A" transform="translate(341,360)"/>
<path d="M0,0 L2,0 L2,3 L7,3 L7,16 L-1,16 L-8,18 L-8,21 L-11,20 L-12,15 L-14,16 L-13,5 L-9,1 Z M-8,2 L-12,6 L-11,13 L-8,16 L-1,15 L2,11 L2,5 L-1,2 Z " fill="#C19F58" transform="translate(58,364)"/>
<path d="M0,0 L4,2 L7,6 L7,19 L2,22 L1,24 L-1,24 L-1,27 L-13,27 L-19,23 L-16,23 L-6,24 L-4,21 L-2,18 L0,18 L0,8 L3,8 L3,11 L1,11 L1,17 L5,17 L5,9 L4,5 L1,5 Z " fill="#B69948" transform="translate(59,109)"/>
<path d="M0,0 L18,0 L18,20 L0,20 Z M2,2 L2,18 L16,18 L16,2 Z " fill="#3C5D4A" transform="translate(98,340)"/>
<path d="M0,0 L6,0 L9,2 L9,10 L6,11 L6,12 L-2,12 L-2,10 L-4,10 L-4,1 Z " fill="#666566" transform="translate(81,293)"/>
<path d="M0,0 L11,0 L16,3 L14,4 L8,3 L8,1 L3,1 L3,4 L1,4 L1,9 L-1,11 L-2,17 L-3,17 L-3,12 L-7,12 L-7,17 L-6,17 L-5,25 L-8,22 L-9,20 L-9,9 L-3,2 Z " fill="#BC9A49" transform="translate(47,358)"/>
<path d="M0,0 L9,0 L11,2 L11,9 L8,12 L2,12 L-1,9 L-1,1 Z " fill="#EEECE9" transform="translate(345,368)"/>
<path d="M0,0 L7,0 L9,1 L9,13 L-1,13 L-1,1 Z " fill="#1C6C44" transform="translate(254,239)"/>
<path d="M0,0 L15,0 L16,1 L16,8 L1,8 L0,7 Z " fill="#306247" transform="translate(126,372)"/>
<path d="M0,0 L5,0 L6,5 L8,5 L8,10 L5,10 L5,13 L7,13 L8,17 L5,20 L0,20 L0,14 L2,14 L2,11 L-1,11 L-1,9 L2,9 L2,7 L-1,6 Z " fill="#403F42" transform="translate(236,111)"/>
<path d="M0,0 L16,0 L24,1 L24,2 L18,2 L18,13 L24,13 L24,14 L16,15 L0,15 Z M2,2 L2,14 L14,14 L14,3 L13,2 Z " fill="#406753" transform="translate(64,314)"/>
<path d="M0,0 L5,0 L5,2 L7,2 L7,4 L9,4 L10,20 L12,24 L19,24 L18,26 L11,26 L7,24 L5,24 L5,26 L-1,26 L-1,23 L6,22 L6,17 L3,17 L3,14 L7,14 L6,3 L4,3 L4,1 L-1,4 L-6,3 L-7,1 L-1,1 Z " fill="#304C3E" transform="translate(155,108)"/>
<path d="M0,0 L2,1 L2,3 L9,1 L10,0 L15,0 L15,3 L22,1 L33,2 L38,1 L43,2 L44,1 L49,1 L54,3 L54,4 L46,5 L36,4 L26,4 L22,4 L14,4 L11,2 L12,10 L10,11 L8,8 L8,5 L-2,4 Z " fill="#0B6C3A" transform="translate(82,131)"/>
<path d="M0,0 L11,0 L14,2 L12,8 L11,9 L1,9 L-1,6 L-1,1 Z " fill="#186F44" transform="translate(319,304)"/>
<path d="M0,0 L7,4 L7,26 L21,26 L21,27 L15,28 L15,30 L11,30 L11,28 L5,29 L4,28 L4,4 L0,4 Z " fill="#0E7241" transform="translate(35,280)"/>
<path d="M0,0 L0,3 L-2,3 L-3,7 L-3,15 L-2,16 L-1,13 L2,13 L1,22 L5,22 L5,20 L7,20 L9,23 L18,22 L21,20 L19,24 L15,26 L4,26 L-4,19 L-5,17 L-5,4 Z " fill="#B69B48" transform="translate(339,110)"/>
<path d="M0,0 L6,1 L7,4 L12,2 L12,0 L16,0 L16,5 L9,7 L7,16 L6,18 L1,17 L1,13 L6,13 L6,5 L2,6 L-1,5 Z " fill="#504C43" transform="translate(120,112)"/>
<path d="M0,0 L6,0 L9,3 L9,23 L6,26 L1,25 L-1,23 L5,22 L5,14 L1,14 L1,12 L6,12 L6,5 L6,3 L1,2 L-1,4 L-5,4 L-5,2 Z " fill="#32493C" transform="translate(305,108)"/>
<path d="M0,0 L1,0 L2,48 L6,47 L6,24 L8,24 L8,48 L5,50 L0,50 Z " fill="#1D764B" transform="translate(34,166)"/>
<path d="M0,0 L4,1 L8,4 L8,13 L-72,14 L-72,12 L7,12 L5,6 L4,4 L0,3 Z " fill="#4C8062" transform="translate(460,106)"/>
<path d="M0,0 L4,0 L6,4 L6,10 L2,10 L2,13 L5,13 L5,18 L-2,19 L-2,12 L0,8 L-2,8 Z " fill="#43423F" transform="translate(156,112)"/>
<path d="M0,0 L7,0 L7,15 L0,15 Z " fill="#405046" transform="translate(135,340)"/>
<path d="M0,0 L2,1 L3,8 L2,19 L1,20 L-4,20 L-4,9 L1,9 L1,7 L-4,7 L-4,1 Z " fill="#4E4A40" transform="translate(90,111)"/>
<path d="M0,0 L3,1 L3,18 L1,20 L-4,19 L-3,14 L-1,14 L-1,11 L1,11 L1,9 L-1,9 L-1,7 L-4,7 L-4,2 Z " fill="#404342" transform="translate(217,111)"/>
<path d="M0,0 L17,1 L13,3 L11,5 L6,4 L-1,3 L-1,5 L-6,4 L-10,3 L-11,5 L-13,5 L-13,9 L-15,9 L-17,2 L-23,3 L-23,1 L-6,1 L-2,2 Z " fill="#1C5D3B" transform="translate(131,107)"/>
<path d="M0,0 L6,0 L6,3 L11,1 L12,0 L17,0 L13,2 L11,4 L10,21 L12,21 L12,26 L6,24 L6,26 L0,26 L-4,25 L-6,26 L-5,23 L0,23 L5,25 L4,22 L8,22 L8,4 L5,4 L5,1 L0,2 Z " fill="#2A513B" transform="translate(282,108)"/>
<path d="M0,0 L5,0 L4,4 L2,4 L0,8 L-1,14 L-4,14 L-5,18 L-7,16 L-7,8 L-5,4 Z " fill="#BD9A4A" transform="translate(342,109)"/>
<path d="M0,0 L7,1 L12,2 L13,4 L7,4 L2,2 L2,4 L-7,5 L-11,7 L-11,4 L-15,4 L-15,7 L-13,7 L-13,9 L-17,9 L-17,5 L-19,5 L-20,3 L-21,4 L-29,4 L-29,3 L-22,2 L-18,1 L-11,3 L-11,1 L-1,2 Z " fill="#08713B" transform="translate(299,131)"/>
<path d="M0,0 L8,0 L8,12 L2,12 L0,10 Z " fill="#8DAA94" transform="translate(116,308)"/>
<path d="M0,0 L2,1 L3,10 L10,10 L12,4 L14,4 L17,12 L22,13 L22,14 L16,14 L15,13 L10,13 L5,14 L0,13 L-3,13 L-1,11 Z " fill="#324B3E" transform="translate(116,120)"/>
<path d="M0,0 L2,3 L6,5 L2,5 L2,7 L6,7 L6,9 L16,9 L16,12 L12,13 L12,16 L7,16 L9,15 L8,13 L1,13 L0,11 Z " fill="#3E403B" transform="translate(188,113)"/>
<path d="M0,0 L7,2 L7,24 L15,24 L17,25 L17,15 L19,15 L19,27 L5,27 L6,3 L0,1 Z " fill="#445349" transform="translate(37,279)"/>
<path d="M0,0 L12,0 L13,3 L15,3 L15,12 L12,13 L12,15 L10,16 L3,16 L-2,15 L-2,3 L0,3 Z M3,1 L0,5 L0,11 L2,11 L3,14 L11,14 L14,11 L14,4 L11,1 Z " fill="#C7AB6C" transform="translate(44,113)"/>
<path d="M0,0 L2,0 L3,24 L-12,24 L-12,14 L-9,15 L-9,22 L0,23 Z " fill="#43574C" transform="translate(266,368)"/>
<path d="M0,0 L8,0 L8,11 L6,12 L6,10 L-2,10 L0,9 Z " fill="#3E3E3E" transform="translate(257,280)"/>
<path d="M0,0 L2,1 L1,5 L8,5 L8,13 L3,13 L4,17 L6,19 L1,18 L0,16 Z " fill="#41413E" transform="translate(118,112)"/>
<path d="M0,0 L8,0 L10,3 L10,17 L9,18 L0,18 L-1,16 L-1,1 Z M1,2 L1,17 L8,17 L8,2 Z " fill="#1A6D45" transform="translate(134,338)"/>
<path d="M0,0 L17,0 L17,2 L1,2 L1,10 L17,10 L17,12 L1,12 L-1,10 L-1,1 Z " fill="#649C7B" transform="translate(363,272)"/>
<path d="M0,0 L4,0 L4,2 L2,2 L2,4 L-2,4 L-2,6 L2,7 L0,7 L-2,11 L-5,14 L-7,18 L-8,6 L-5,3 Z " fill="#F7F9F9" transform="translate(40,96)"/>
<path d="M0,0 L7,0 L7,11 L6,12 L0,12 Z " fill="#86AC92" transform="translate(46,316)"/>
<path d="M0,0 L5,0 L6,1 L6,14 L0,14 Z " fill="#415548" transform="translate(324,161)"/>
<path d="M0,0 L7,0 L11,3 L11,11 L8,14 L0,14 L-3,12 L-3,4 Z M2,1 L-1,5 L0,11 L3,13 L8,12 L8,4 L6,4 L6,1 Z " fill="#E2D6BB" transform="translate(345,114)"/>
<path d="M0,0 L1,0 L1,18 L14,18 L13,14 L15,14 L16,21 L20,21 L20,18 L26,18 L26,21 L15,22 L15,19 L9,21 L8,22 L2,22 L0,19 Z " fill="#2E4C3B" transform="translate(82,112)"/>
<path d="M0,0 L10,0 L12,2 L11,7 L0,7 Z " fill="#306047" transform="translate(298,305)"/>
<path d="M0,0 L6,0 L7,3 L10,4 L10,1 L16,1 L16,5 L6,5 L5,8 L0,8 L-1,1 Z " fill="#5A5242" transform="translate(190,125)"/>
<path d="M0,0 L6,0 L6,13 L0,13 Z " fill="#444746" transform="translate(323,144)"/>
<path d="M0,0 L4,0 L5,2 L10,2 L12,1 L12,4 L4,5 L4,7 L-1,6 L-1,5 L-10,4 L-12,5 L-19,4 L-22,1 L-12,3 L-12,1 L-2,2 Z " fill="#0B6E3C" transform="translate(196,131)"/>
<path d="M0,0 L5,1 L6,2 L6,8 L5,9 L-2,9 L-4,7 L-4,2 Z " fill="#AD8C49" transform="translate(374,111)"/>
<path d="M0,0 L4,0 L4,12 L3,18 L-2,18 L-2,14 L2,14 L2,8 L-3,7 L-2,1 Z " fill="#564E42" transform="translate(146,111)"/>
<path d="M0,0 L5,0 L5,2 L11,2 L13,3 L13,7 L15,8 L10,9 L9,7 L10,5 L8,6 L-2,7 L-2,3 L0,3 Z " fill="#BD994C" transform="translate(50,359)"/>
<path d="M0,0 L5,2 L5,4 L41,4 L42,5 L42,28 L41,28 L40,6 L2,5 Z " fill="#187844" transform="translate(65,363)"/>
<path d="M0,0 L6,0 L7,1 L7,11 L0,11 Z " fill="#A4AC9E" transform="translate(56,316)"/>
<path d="M0,0 L14,0 L14,12 L12,12 L12,2 L1,2 L1,25 L-3,26 L-1,24 Z " fill="#3F5A4D" transform="translate(42,190)"/>
<path d="M0,0 L8,0 L11,3 L11,10 L8,13 L5,13 L5,11 L7,11 L7,4 L-1,3 L-1,10 L-3,10 L-3,4 Z " fill="#E5DCC7" transform="translate(47,114)"/>
<path d="M0,0 L4,0 L4,2 L0,2 L0,8 L5,8 L5,10 L0,10 L0,20 L-3,20 L-3,2 Z " fill="#3F413C" transform="translate(86,110)"/>
<path d="M0,0 L7,1 L8,2 L8,10 L5,13 L-2,13 L-6,11 L-6,5 L-3,1 Z M0,2 L-4,4 L-4,9 L-2,11 L5,11 L6,10 L6,4 L4,2 Z " fill="#5A6238" transform="translate(374,109)"/>
<path d="M0,0 L6,0 L11,1 L12,0 L17,0 L22,1 L23,0 L28,0 L29,1 L34,1 L35,0 L40,0 L40,2 L34,4 L30,5 L27,2 L23,3 L18,4 L16,2 L12,3 L7,4 L5,2 L-1,2 Z " fill="#21583B" transform="translate(236,108)"/>
<path d="M0,0 L1,0 L1,13 L15,14 L16,0 L17,0 L17,14 L15,16 L1,16 L-1,12 L-1,1 Z " fill="#345C48" transform="translate(47,340)"/>
<path d="M0,0 L12,0 L12,6 L0,6 Z " fill="#B3978B" transform="translate(106,330)"/>
<path d="M0,0 L11,0 L11,18 L9,18 L9,2 L0,2 L0,18 L-1,18 L-1,1 Z " fill="#529872" transform="translate(331,324)"/>
<path d="M0,0 L1,2 L-1,2 L-2,7 L-5,9 L-15,8 L-19,4 L-17,3 L-17,5 L-14,5 L-13,2 L-11,3 L-2,3 L-2,1 Z " fill="#BC9A4D" transform="translate(58,125)"/>
<path d="M0,0 L2,1 L0,3 L-1,8 L1,8 L2,10 L2,18 L4,18 L4,20 L1,20 L1,18 L-2,18 L-2,15 L-4,15 L-4,8 L-1,1 Z " fill="#A09347" transform="translate(40,110)"/>
<path d="M0,0 L1,0 L2,17 L13,18 L11,23 L10,35 L9,35 L9,24 L-9,25 L-9,23 L9,23 L9,20 L1,19 L0,18 Z " fill="#187F4B" transform="translate(371,248)"/>
<path d="M0,0 L8,0 L8,8 L0,8 L-1,1 Z " fill="#B19049" transform="translate(68,192)"/>
<path d="M0,0 L1,2 L7,2 L8,0 L8,3 L3,4 L3,9 L9,8 L9,6 L13,6 L11,12 L8,12 L8,19 L7,19 L7,10 L0,10 Z " fill="#0B7840" transform="translate(35,148)"/>
<path d="M0,0 L5,0 L5,3 L11,3 L12,0 L16,1 L17,3 L12,2 L11,9 L7,8 L9,4 L3,5 L1,5 L-5,5 L-7,1 L-1,2 Z " fill="#0E6C3B" transform="translate(219,131)"/>
<path d="M0,0 L13,0 L14,5 L1,5 Z " fill="#3F5549" transform="translate(281,313)"/>
<path d="M0,0 L2,0 L4,7 L8,7 L7,12 L2,11 L2,17 L0,17 Z " fill="#3F3F3F" transform="translate(106,113)"/>
<path d="M0,0 L6,0 L6,11 L0,11 Z " fill="#A6AFA0" transform="translate(82,316)"/>
<path d="M0,0 L7,0 L14,3 L17,6 L18,10 L18,19 L16,24 L15,22 L15,7 L12,4 L3,3 L-5,4 L-4,2 L0,2 Z " fill="#898F47" transform="translate(345,106)"/>
<path d="M0,0 L4,2 L4,4 L7,4 L9,8 L9,14 L8,16 L4,16 L4,10 L6,10 L6,7 L1,6 Z " fill="#BF9949" transform="translate(56,110)"/>
<path d="M0,0 L6,0 L6,11 L1,11 L0,10 Z " fill="#ACAFA0" transform="translate(92,316)"/>
<path d="M0,0 L4,0 L5,9 L7,8 L8,15 L4,14 L1,11 L0,6 L-1,2 Z " fill="#BA984B" transform="translate(40,370)"/>
<path d="M0,0 L2,0 L2,2 L10,4 L10,10 L6,11 L6,8 L4,8 L4,6 L2,6 L2,9 L0,9 Z " fill="#3E403B" transform="translate(268,114)"/>
<path d="M0,0 L8,6 L19,6 L22,6 L21,8 L7,8 L7,13 L4,13 L1,9 L1,7 L3,5 L0,2 Z " fill="#137A38" transform="translate(335,129)"/>
<path d="M0,0 L9,0 L8,2 L1,2 L-2,5 L-1,12 L1,14 L8,14 L7,16 L1,17 L1,20 L-2,19 L-3,14 L-5,15 L-4,4 Z " fill="#C4A966" transform="translate(49,365)"/>
<path d="M0,0 L6,1 L4,2 L5,7 L1,8 L1,10 L-3,10 L-3,2 Z " fill="#41443C" transform="translate(167,110)"/>
<path d="M0,0 L4,0 L4,2 L9,1 L10,6 L9,11 L6,11 L7,4 L5,4 L5,9 L3,9 L3,12 L1,11 L1,2 Z " fill="#C3A35B" transform="translate(354,368)"/>
<path d="M0,0 L4,1 L-3,6 L-5,12 L-6,19 L-4,19 L-2,25 L-7,20 L-8,8 L-5,3 Z " fill="#377F41" transform="translate(42,106)"/>
<path d="M0,0 L31,0 L29,4 L26,5 L26,3 L24,3 L24,1 L18,3 L0,1 Z " fill="#076E3C" transform="translate(136,107)"/>
<path d="M0,0 L3,1 L2,11 L-3,11 L-4,14 L-8,14 L-7,10 L-4,10 L-2,8 L0,9 L0,4 L-4,4 L-4,1 Z " fill="#37453E" transform="translate(302,120)"/>
<path d="M0,0 L2,0 L2,2 L4,2 L4,5 L6,5 L6,10 L1,11 L-2,8 L-2,3 L0,3 Z " fill="#3F4041" transform="translate(270,120)"/>
<path d="M0,0 L2,0 L2,3 L4,3 L4,0 L8,1 L7,8 L-1,8 Z " fill="#F2F1F3" transform="translate(50,369)"/>
<path d="M0,0 L9,0 L10,2 L10,9 L9,9 L7,2 L-2,3 L-3,9 L-1,12 L7,13 L7,14 L-2,14 L-6,10 L-6,4 L-4,4 L-3,1 Z " fill="#236937" transform="translate(69,189)"/>
<path d="M0,0 L7,0 L10,1 L9,5 L13,5 L13,7 L9,7 L9,9 L13,10 L13,13 L10,13 L10,11 L8,11 L8,17 L7,17 L6,2 L0,1 Z " fill="#0E723E" transform="translate(323,141)"/>
<path d="M0,0 L11,0 L11,5 L0,5 Z " fill="#B49489" transform="translate(107,284)"/>
<path d="M0,0 L11,0 L10,5 L0,5 Z " fill="#365D48" transform="translate(320,306)"/>
<path d="M0,0 L5,0 L7,2 L7,8 L1,7 L-2,4 Z " fill="#514E42" transform="translate(271,110)"/>
<path d="M0,0 L8,0 L9,1 L9,17 L7,17 L6,2 L1,2 L0,6 Z " fill="#92AB96" transform="translate(374,248)"/>
<path d="M0,0 L1,4 L2,9 L-5,5 L-17,5 L-17,3 L-15,2 L-1,1 Z " fill="#16753D" transform="translate(63,354)"/>
<path d="M0,0 L4,0 L5,10 L10,11 L10,12 L3,12 L0,11 Z " fill="#529773" transform="translate(88,316)"/>
<path d="M0,0 L5,0 L5,9 L0,9 L-1,8 L-1,1 Z " fill="#425548" transform="translate(255,242)"/>
<path d="M0,0 L4,0 L4,3 L9,3 L8,11 L4,11 L2,3 L0,2 Z " fill="#574F43" transform="translate(94,122)"/>
<path d="M0,0 L4,1 L5,2 L4,9 L0,9 L0,7 L-2,7 L-2,2 Z " fill="#464541" transform="translate(260,109)"/>
<path d="M0,0 L1,2 L6,2 L5,7 L4,10 L0,10 L-1,8 L-1,1 Z " fill="#584F43" transform="translate(259,123)"/>
<path d="M0,0 L5,2 L9,5 L8,8 L10,8 L10,20 L8,24 L6,23 L7,19 L7,10 L5,5 Z " fill="#1C7936" transform="translate(355,106)"/>
<path d="M0,0 L1,0 L1,32 L3,32 L5,37 L6,39 L2,37 L0,35 Z " fill="#418A63" transform="translate(34,351)"/>
<path d="M0,0 L7,0 L7,7 L0,7 Z " fill="#A69647" transform="translate(54,176)"/>
<path d="M0,0 L7,5 L10,6 L10,8 L34,8 L34,9 L9,9 L9,7 L4,6 L0,4 Z " fill="#EAEBE8" transform="translate(34,386)"/>
<path d="M0,0 L7,0 L8,4 L4,3 L4,6 L2,6 L2,3 L0,3 L0,8 L-3,8 L-3,3 Z " fill="#EAE7DA" transform="translate(50,366)"/>
<path d="M0,0 L2,0 L2,6 L-3,6 L-3,22 L-4,22 L-4,1 Z " fill="#09723E" transform="translate(120,338)"/>
<path d="M0,0 L10,0 L9,3 L2,2 L4,12 L0,13 Z " fill="#A79F95" transform="translate(103,309)"/>
<path d="M0,0 L5,0 L5,9 L0,9 L-1,3 Z " fill="#47483F" transform="translate(109,109)"/>
<path d="M0,0 L4,0 L4,12 L0,11 Z " fill="#B49184" transform="translate(372,130)"/>
<path d="M0,0 L4,1 L7,0 L7,2 L4,4 L0,4 L0,6 L-9,6 L-9,4 L-14,3 L-15,1 L-7,3 L2,3 L2,1 Z " fill="#8D8E4B" transform="translate(57,382)"/>
<path d="M0,0 L3,1 L3,12 L-1,12 L-1,1 Z " fill="#B59287" transform="translate(377,251)"/>
<path d="M0,0 L2,0 L2,14 L-19,14 L-19,13 L1,13 L0,4 L-1,6 L-3,6 L-1,1 Z " fill="#297D4C" transform="translate(67,378)"/>
<path d="M0,0 L2,1 L2,3 L5,3 L6,0 L9,0 L7,5 L8,6 L21,6 L20,8 L7,8 L1,4 Z " fill="#9A934A" transform="translate(337,380)"/>
<path d="M0,0 L3,2 L5,6 L5,15 L3,15 L2,20 L1,18 L2,4 L0,4 Z " fill="#969248" transform="translate(63,362)"/>
<path d="M0,0 L8,1 L8,7 L6,9 L3,9 L2,2 L0,2 Z " fill="#595141" transform="translate(222,124)"/>
<path d="M0,0 L2,1 L1,6 L4,7 L4,13 L-1,13 L-2,7 Z " fill="#424340" transform="translate(132,118)"/>
<path d="M0,0 L8,0 L9,3 L6,5 L6,2 L4,2 L4,7 L1,7 L1,5 L-1,5 Z " fill="#F3F0F1" transform="translate(346,369)"/>
<path d="M0,0 L11,0 L11,4 L0,4 Z " fill="#B39186" transform="translate(333,350)"/>
<path d="M0,0 L4,0 L4,11 L0,11 Z " fill="#B49188" transform="translate(334,328)"/>
<path d="M0,0 L11,0 L11,4 L0,4 Z " fill="#B49089" transform="translate(106,298)"/>
<path d="M0,0 L2,1 L1,2 L0,11 L2,11 L2,13 L13,13 L13,15 L1,15 L-1,13 L-1,1 Z " fill="#505E55" transform="translate(77,292)"/>
<path d="M0,0 L11,0 L11,4 L0,4 Z " fill="#B09287" transform="translate(366,276)"/>
<path d="M0,0 L5,0 L5,9 L0,8 Z " fill="#80AA8A" transform="translate(36,140)"/>
<path d="M0,0 L13,0 L13,1 L7,1 L8,3 L8,9 L6,10 L6,7 L4,7 L4,4 Z " fill="#01773A" transform="translate(359,107)"/>
<path d="M0,0 L6,0 L6,6 L1,7 L-1,5 Z " fill="#A09548" transform="translate(42,176)"/>
<path d="M0,0 L15,0 L21,6 L21,8 L17,8 L15,3 L14,2 L1,2 L-2,5 L-4,4 Z " fill="#848E48" transform="translate(343,360)"/>
<path d="M0,0 L3,3 L7,5 L18,6 L17,8 L4,8 L4,5 L0,4 Z " fill="#30803A" transform="translate(337,382)"/>
<path d="M0,0 L10,0 L10,4 L5,3 L0,5 L-2,2 Z " fill="#BF9B45" transform="translate(345,382)"/>
<path d="M0,0 L3,0 L3,2 L22,3 L22,4 L6,4 L6,6 L-2,6 L-2,5 L3,4 L0,3 Z " fill="#0F7643" transform="translate(58,310)"/>
<path d="M0,0 L4,0 L4,5 L2,7 L-2,7 L-3,1 Z " fill="#5A5342" transform="translate(203,111)"/>
<path d="M0,0 L3,1 L4,6 L2,6 L2,8 L-3,7 L-2,2 Z " fill="#5C5143" transform="translate(180,110)"/>
<path d="M0,0 L6,0 L6,2 L-2,5 L-4,11 L-5,11 L-6,1 Z " fill="#0E6F38" transform="translate(372,107)"/>
<path d="M0,0 L2,0 L1,7 L4,7 L4,2 L5,2 L5,8 L1,14 L-1,13 Z " fill="#9E9449" transform="translate(359,372)"/>
<path d="M0,0 L0,3 L-5,6 L-16,6 L-19,3 L-7,3 L-1,1 Z " fill="#808F44" transform="translate(359,130)"/>
<path d="M0,0 L5,0 L5,7 L0,7 L-1,2 Z " fill="#5C5441" transform="translate(236,111)"/>
<path d="M0,0 L1,3 L-1,6 L-4,6 L-4,8 L-18,8 L-20,5 L-17,6 L-5,7 L-5,4 L-3,4 L-2,1 Z " fill="#3A813D" transform="translate(63,129)"/>
<path d="M0,0 L7,1 L7,6 L0,6 Z " fill="#5D5541" transform="translate(108,124)"/>
<path d="M0,0 L2,1 L1,4 L-4,5 L-16,5 L-16,3 L-19,3 L-18,1 L-14,2 L-14,4 L-5,4 L-5,2 Z " fill="#267D38" transform="translate(62,384)"/>
<path d="M0,0 L4,0 L4,9 L0,9 Z " fill="#C0ACA7" transform="translate(47,317)"/>
<path d="M0,0 L4,0 L5,5 L4,8 L0,7 L-1,2 Z " fill="#5D5542" transform="translate(156,112)"/>
<path d="M0,0 L4,2 L7,6 L7,19 L5,20 L5,9 L4,5 L1,5 Z " fill="#6E8A43" transform="translate(59,109)"/>
<path d="M0,0 L5,1 L4,8 L0,7 Z " fill="#605444" transform="translate(178,125)"/>
<path d="M0,0 L1,0 L2,7 L4,7 L4,1 L6,1 L6,10 L1,10 L0,9 Z " fill="#EFEEE7" transform="translate(46,117)"/>
<path d="M0,0 L1,2 L6,2 L6,4 L-4,4 L-16,3 L-16,2 L0,2 Z " fill="#38844A" transform="translate(347,356)"/>
<path d="M0,0 L1,0 L1,16 L3,16 L3,18 L-1,17 L-3,16 L-3,12 L-1,12 Z " fill="#107F46" transform="translate(45,316)"/>
<path d="M0,0 L8,0 L8,2 L12,3 L-5,4 L-4,2 L0,2 Z " fill="#93924A" transform="translate(47,106)"/>
<path d="M0,0 L5,0 L10,1 L16,1 L16,2 L10,4 L6,5 L6,3 L-2,3 L-2,1 Z " fill="#16613C" transform="translate(202,107)"/>
<path d="M0,0 L11,0 L11,3 L0,3 Z " fill="#444342" transform="translate(128,375)"/>
<path d="M0,0 L11,0 L11,3 L0,3 Z " fill="#444342" transform="translate(283,314)"/>
<path d="M0,0 L0,3 L-2,3 L-3,7 L-3,15 L-2,20 L-5,17 L-5,4 Z " fill="#7D8D46" transform="translate(339,110)"/>
<path d="M0,0 L2,0 L2,5 L4,5 L4,10 L-1,9 Z " fill="#5F5341" transform="translate(284,120)"/>
<path d="M0,0 L1,0 L1,15 L-1,16 L-1,11 L-3,10 Z " fill="#3B413E" transform="translate(231,114)"/>
<path d="M0,0 L4,0 L4,3 L1,3 L1,23 L0,23 Z " fill="#1B6A43" transform="translate(268,368)"/>
<path d="M0,0 L9,0 L9,2 L13,3 L-2,3 Z " fill="#A3A896" transform="translate(333,354)"/>
<path d="M0,0 L4,0 L4,8 L0,8 Z " fill="#AFBEA6" transform="translate(37,159)"/>
<path d="M0,0 L6,0 L5,5 L-1,5 Z " fill="#5F5844" transform="translate(305,126)"/>
<path d="M0,0 L2,2 L2,9 L-2,11 L-12,11 L-11,9 L-3,9 L-1,7 Z " fill="#BFA55D" transform="translate(356,118)"/>
<path d="M0,0 L4,0 L4,2 L6,2 L6,5 L4,5 L4,7 L1,7 Z " fill="#605441" transform="translate(282,111)"/>
<path d="M0,0 L6,1 L10,2 L10,4 L5,4 L1,3 L-5,4 L-6,2 Z " fill="#27553D" transform="translate(190,108)"/>
<path d="M0,0 L7,1 L12,2 L13,4 L7,4 L2,2 L2,4 L-5,4 L-1,2 Z " fill="#14633A" transform="translate(299,131)"/>
<path d="M0,0 L5,0 L4,6 L-1,5 Z " fill="#675843" transform="translate(214,125)"/>
<path d="M0,0 L6,0 L6,4 L3,6 L0,6 Z " fill="#615744" transform="translate(97,113)"/>
<path d="M0,0 L4,0 L5,6 L0,6 L-1,1 Z " fill="#615941" transform="translate(294,112)"/>
<path d="M0,0 L1,0 L2,14 L-4,16 L-1,10 Z " fill="#267D3C" transform="translate(364,370)"/>
<path d="M0,0 L3,0 L3,10 L0,10 Z " fill="#414340" transform="translate(325,163)"/>
<path d="M0,0 L4,0 L5,6 L0,6 L-1,1 Z " fill="#5F5943" transform="translate(168,125)"/>
<path d="M0,0 L2,3 L3,9 L3,12 L0,11 L-1,3 Z " fill="#3F4040" transform="translate(223,113)"/>
<path d="M0,0 L1,3 L-6,6 L-10,5 L-4,1 Z " fill="#0C7732" transform="translate(362,385)"/>
<path d="M0,0 L5,1 L5,6 L0,6 Z " fill="#635C42" transform="translate(236,125)"/>
<path d="M0,0 L5,0 L5,2 L7,2 L7,5 L2,6 Z " fill="#635841" transform="translate(223,112)"/>
<path d="M0,0 L7,0 L11,3 L3,3 L-5,4 L-4,2 L0,2 Z " fill="#9C924F" transform="translate(345,106)"/>
<path d="M0,0 L17,0 L15,3 L6,2 L0,1 Z " fill="#04713A" transform="translate(114,107)"/>
<path d="M0,0 L4,0 L4,7 L0,7 Z " fill="#3D423F" transform="translate(136,343)"/>
<path d="M0,0 L1,2 L2,6 L6,6 L7,2 L9,2 L9,7 L8,8 L1,8 L-1,6 L-1,1 Z " fill="#3B8040" transform="translate(41,176)"/>
<path d="M0,0 L9,3 L18,3 L18,5 L6,5 L0,1 Z " fill="#7F8F44" transform="translate(40,131)"/>
<path d="M0,0 L4,0 L4,5 L-1,6 L-1,1 Z " fill="#645C41" transform="translate(272,125)"/>
<path d="M0,0 L3,2 L9,2 L12,0 L10,5 L2,5 Z " fill="#D0BE8D" transform="translate(344,377)"/>
<path d="M0,0 L2,0 L3,9 L1,9 L1,7 L-2,7 L-1,1 Z " fill="#CAAE76" transform="translate(342,371)"/>
<path d="M0,0 L9,0 L9,1 L1,2 L0,6 L2,6 L2,11 L-1,9 L-1,1 Z " fill="#E9E5D6" transform="translate(345,368)"/>
<path d="M0,0 L7,0 L8,4 L3,3 L2,4 L-4,4 L0,3 Z " fill="#285338" transform="translate(263,130)"/>
<path d="M0,0 L5,1 L4,6 L0,5 Z " fill="#6C5B44" transform="translate(294,125)"/>
<path d="M0,0 L2,0 L0,6 L-4,6 L-4,1 Z " fill="#695A43" transform="translate(252,124)"/>
<path d="M0,0 L4,1 L4,5 L6,5 L6,7 L1,6 L0,5 Z " fill="#0D7643" transform="translate(39,384)"/>
<path d="M0,0 L1,2 L1,9 L2,9 L3,17 L0,14 L-1,12 L-1,1 Z " fill="#758B45" transform="translate(39,366)"/>
<path d="M0,0 L3,1 L0,5 L-3,5 L-4,12 L-5,8 L-3,3 Z " fill="#99914B" transform="translate(44,360)"/>
<path d="M0,0 L11,0 L16,3 L14,4 L8,3 L8,1 L-1,2 Z " fill="#868F45" transform="translate(47,358)"/>
<path d="M0,0 L2,1 L11,2 L11,4 L-1,4 Z " fill="#278658" transform="translate(103,304)"/>
<path d="M0,0 L5,5 L8,9 L3,9 L2,5 L0,4 Z " fill="#0F7838" transform="translate(35,126)"/>
<path d="M0,0 L4,0 L4,6 L-1,5 Z " fill="#635943" transform="translate(120,112)"/>
<path d="M0,0 L3,1 L3,8 L0,9 Z " fill="#3F5145" transform="translate(254,382)"/>
<path d="M0,0 L4,2 L10,3 L10,4 L3,4 L-1,2 L-1,4 L-8,4 L-8,3 L-2,3 L-2,1 Z " fill="#0F683D" transform="translate(162,131)"/>
<path d="M0,0 L1,0 L1,9 L-4,9 L-4,5 L0,5 Z " fill="#665943" transform="translate(148,120)"/>
<path d="M0,0 L5,0 L5,5 L0,5 Z " fill="#645E3F" transform="translate(306,113)"/>
<path d="M0,0 L8,0 L8,3 L0,3 Z " fill="#474945" transform="translate(321,307)"/>
<path d="M0,0 L8,0 L8,3 L0,3 Z " fill="#454742" transform="translate(299,307)"/>
<path d="M0,0 L2,3 L2,10 L0,14 L-2,13 Z " fill="#3E8140" transform="translate(363,116)"/>
<path d="M0,0 L4,0 L5,5 L1,6 Z " fill="#655D40" transform="translate(167,112)"/>
<path d="M0,0 L6,1 L7,0 L13,0 L12,2 L7,3 L3,5 L3,2 L0,2 Z " fill="#1D5D3B" transform="translate(171,108)"/>
<path d="M0,0 L5,1 L4,5 L0,5 Z " fill="#685E3F" transform="translate(213,113)"/>
<path d="M0,0 L7,5 L10,7 L4,6 L0,4 Z " fill="#DEE4E0" transform="translate(34,386)"/>
<path d="M0,0 L3,0 L5,4 L10,5 L10,6 L4,6 L-1,4 Z " fill="#2B503A" transform="translate(128,128)"/>
<path d="M0,0 L4,1 L3,5 L-1,5 Z " fill="#6D5E44" transform="translate(191,112)"/>
<path d="M0,0 L5,0 L4,5 L1,5 Z " fill="#C1994A" transform="translate(338,378)"/>
<path d="M0,0 L3,0 L3,7 L0,7 Z " fill="#C6C2B4" transform="translate(37,141)"/>
<path d="M0,0 L1,0 L1,5 L-4,5 L-4,1 Z " fill="#665E45" transform="translate(90,111)"/>
<path d="M0,0 L4,1 L-3,6 L-5,8 L-4,3 Z " fill="#207A3A" transform="translate(42,106)"/>
<path d="M0,0 L5,0 L6,4 L0,4 Z " fill="#42453C" transform="translate(97,109)"/>
<path d="M0,0 L1,0 L1,5 L-1,6 L-1,4 L-7,5 L-7,3 L-1,3 Z " fill="#0D6D3A" transform="translate(77,200)"/>
<path d="M0,0 L7,2 L7,0 L9,0 L11,4 L2,3 Z " fill="#A59649" transform="translate(337,130)"/>
<path d="M0,0 L4,0 L4,5 L0,5 Z " fill="#6E6246" transform="translate(132,125)"/>
<path d="M0,0 L3,0 L1,10 L-1,7 Z " fill="#AC9846" transform="translate(38,118)"/>
<path d="M0,0 L4,0 L4,5 L0,5 Z " fill="#6A6242" transform="translate(260,113)"/>
<path d="M0,0 L5,0 L5,4 L0,4 Z " fill="#675C3E" transform="translate(109,114)"/>
<path d="M0,0 L4,0 L4,5 L0,5 Z " fill="#6D6042" transform="translate(132,112)"/>
<path d="M0,0 L6,0 L6,2 L-3,5 L-3,2 L0,2 Z " fill="#1C6C34" transform="translate(372,107)"/>
<path d="M0,0 L6,0 L1,5 L-2,5 Z " fill="#36803C" transform="translate(338,106)"/>
<path d="M0,0 L1,2 L3,2 L4,8 L1,8 Z " fill="#1A7A37" transform="translate(333,376)"/>
<path d="M0,0 L5,0 L4,4 L0,4 Z " fill="#6E6142" transform="translate(156,125)"/>
<path d="M0,0 L4,0 L4,2 L7,2 L6,4 L0,3 L-3,3 Z " fill="#2E4F3D" transform="translate(167,108)"/>
<path d="M0,0 L4,1 L8,4 L7,6 L0,3 Z " fill="#579674" transform="translate(460,106)"/>
<path d="M0,0 L2,1 L3,6 L-2,4 L-2,2 L-6,1 Z " fill="#D7DDD8" transform="translate(462,102)"/>
<path d="M0,0 L2,0 L2,8 L-1,8 Z " fill="#B7B8B9" transform="translate(230,394)"/>
<path d="M0,0 L3,0 L3,6 L0,6 Z " fill="#BC9A42" transform="translate(62,370)"/>
<path d="M0,0 L2,0 L2,3 L0,3 L0,7 L-2,7 L-3,4 L-2,1 Z " fill="#B39A41" transform="translate(48,359)"/>
<path d="M0,0 L3,0 L3,6 L0,6 Z " fill="#B9A29B" transform="translate(119,310)"/>
<path d="M0,0 L3,0 L3,6 L0,6 Z " fill="#434342" transform="translate(256,243)"/>
<path d="M0,0 L1,2 L0,9 L-3,9 L-2,4 Z " fill="#34804E" transform="translate(37,109)"/>
<path d="M0,0 L3,0 L2,6 L-2,4 L0,3 Z " fill="#C3A053" transform="translate(354,111)"/>
<path d="M0,0 L6,0 L7,5 L0,1 Z " fill="#217B39" transform="translate(56,106)"/>
<path d="M0,0 L6,0 L7,5 L0,1 Z " fill="#217B39" transform="translate(58,358)"/>
<path d="M0,0 L4,2 L-2,6 L-2,1 Z " fill="#197739" transform="translate(42,358)"/>
<path d="M0,0 L7,0 L7,4 L3,3 L4,1 Z " fill="#0A713D" transform="translate(254,252)"/>
<path d="M0,0 L6,0 L6,3 L0,4 Z " fill="#285240" transform="translate(102,130)"/>
<path d="M0,0 L3,0 L4,5 L-1,4 Z " fill="#2D4E3D" transform="translate(255,128)"/>
<path d="M0,0 L4,2 L5,7 L4,5 L1,5 Z " fill="#899147" transform="translate(59,109)"/>
</svg>
